<?xml version="1.0" encoding="UTF-8"?> <svg xmlns="http://www.w3.org/2000/svg" id="Camada_1" data-name="Camada 1" version="1.1" viewBox="0 0 1920 984"><defs><style> .cls-1 { fill: #1f3661; } .cls-2 { fill: #669df6; } </style></defs><path class="cls-2" d="M229.6,876.4c-12.5,12.4-29.1,18.6-49.7,18.6h-41.3v-135.2h41.3c20.6,0,37.2,6.2,49.7,18.7,12.5,12.5,18.8,28.8,18.8,48.9s-6.3,36.6-18.8,49h0ZM217,790c-9.1-9.1-21.5-13.6-37.2-13.6h-24v101.9h24c15.7,0,28.1-4.5,37.2-13.5,9.1-9,13.6-21.5,13.6-37.5s-4.5-28.3-13.6-37.4h0ZM291.6,895v-135.2h17.4v135.2h-17.4ZM420.5,822.7h65.5c.6,3.5.9,6.9.9,10.2,0,18.9-5.6,33.9-16.8,45.1-12.6,13.3-29.1,20-49.6,20s-36.3-6.8-49.8-20.4c-13.6-13.6-20.4-30.3-20.4-50.2s6.8-36.6,20.4-50.2c13.6-13.6,30.2-20.4,49.8-20.4s19.3,1.8,28.1,5.3c8.8,3.5,16,8.5,21.7,14.9l-12.5,12.5c-4.2-5-9.5-9-16.1-11.8-6.6-2.8-13.7-4.2-21.2-4.2-14.7,0-27.2,5.1-37.4,15.3-10.1,10.3-15.1,23.2-15.1,38.7s5,28.4,15.1,38.7c10.2,10.2,22.7,15.3,37.4,15.3s24.7-3.8,33.6-11.3c8.9-7.6,14.1-17.9,15.5-31.2h-49.1v-16.2h0ZM530.8,895v-135.2h17.4v135.2h-17.4ZM644,776.4v118.6h-17.4v-118.6h-37.8v-16.6h92.9v16.6h-37.8ZM801.3,895l-13-36.6h-56.8l-13.2,36.6h-19.3l51-135.2h19.6l51,135.2h-19.3ZM760.1,781.1h-.8l-22.1,61h44.9l-22.1-61h0ZM859.1,895v-135.2h17.4v118.6h58.5v16.6h-75.9Z"></path><g><path class="cls-1" d="M429,205.4c-22-11.6-48-17.5-78.2-17.5s-51.4,4.6-74.6,13.9c-23.3,9.3-43.6,22.4-60.8,39.3-17.2,16.9-30.8,37.5-40.9,61.5-10.1,24.1-15.1,51-15.1,80.6s5,56.5,15.1,80.6c10.1,24.1,23.7,44.6,40.9,61.5,17.2,16.9,37.4,30.1,60.8,39.3,23.3,9.3,48.2,13.9,74.6,13.9s60-6.5,84.6-19.5c24.6-13,46.5-31.4,65.5-55.2l76.2,72.3c-28.1,33.9-61.1,59.7-99.3,77.4-38.1,17.7-80.7,26.6-127.9,26.6s-81.7-7.7-117.9-23c-36.3-15.3-67.6-36.3-94.1-62.7-26.5-26.5-47.4-57.8-62.7-94.1-15.4-36.3-23-75.3-23-117.1s7.7-80.9,23-117.1c15.4-36.3,36.3-67.6,62.7-94.1,26.5-26.5,57.8-47.4,94.1-62.7,36.3-15.4,75.6-23,117.9-23s85.6,7.9,120.3,23.8c34.7,15.9,65.5,38.9,92.5,69.1l-75.4,73.1c-17-19.6-36.4-35.2-58.4-46.9h0Z"></path><path class="cls-1" d="M747.9,206.6c-13.2,13-29.1,19.5-47.6,19.5s-17.6-1.7-25.8-5.2c-8.2-3.4-15.4-8.2-21.4-14.3-6.1-6.1-10.9-13.1-14.3-21-3.5-7.9-5.2-16.7-5.2-26.2s1.7-18.3,5.2-26.2c3.4-7.9,8.2-15,14.3-21,6.1-6.1,13.2-10.8,21.4-14.3,8.2-3.4,16.8-5.2,25.8-5.2,18.5,0,34.4,6.5,47.6,19.5,13.2,13,19.9,28.7,19.9,47.3s-6.6,34.3-19.9,47.3h0Z"></path><polygon class="cls-1" points="752.6 667.6 648.6 667.6 648.6 278.5 752.6 278.5 752.6 667.6 752.6 667.6"></polygon><polygon class="cls-1" points="1227.5 667.6 1104.4 667.6 998 496.8 952 542.1 952 667.6 847.9 667.6 847.9 99 952 99 952 408.7 956.7 408.7 1087 278.5 1215.6 278.5 1215.6 284.8 1071.1 425.4 1227.5 661.2 1227.5 667.6 1227.5 667.6"></polygon><path class="cls-1" d="M1374.4,206.6c-13.2,13-29.1,19.5-47.6,19.5s-17.6-1.7-25.8-5.2c-8.2-3.4-15.4-8.2-21.4-14.3-6.1-6.1-10.9-13.1-14.3-21-3.5-7.9-5.2-16.7-5.2-26.2s1.7-18.3,5.2-26.2c3.4-7.9,8.2-15,14.3-21s13.2-10.8,21.4-14.3c8.2-3.4,16.8-5.2,25.8-5.2,18.5,0,34.4,6.5,47.6,19.5,13.2,13,19.9,28.7,19.9,47.3s-6.6,34.3-19.9,47.3h0Z"></path><polygon class="cls-1" points="1379.2 667.6 1275.2 667.6 1275.2 278.5 1379.2 278.5 1379.2 667.6 1379.2 667.6"></polygon><polygon class="cls-1" points="1622.2 839.1 1510.2 839.1 1596.8 648.5 1433.2 278.5 1551.5 278.5 1650 514.3 1655.6 514.3 1750.1 278.5 1866 278.5 1622.2 839.1 1622.2 839.1"></polygon></g></svg> 