<?xml version="1.0" encoding="UTF-8"?> <svg xmlns="http://www.w3.org/2000/svg" id="Camada_1" data-name="Camada 1" version="1.1" viewBox="0 0 1200 360"><defs><style> .cls-1 { fill: #cc8c50; stroke-width: 0px; } </style></defs><path class="cls-1" d="M124.6,294.2v-.6c2-2.7,3.5-9.7,4.5-21.2.9-11.5,1.4-24.7,1.4-39.6v-110.5c0-14.9-.5-28.1-1.4-39.6-.9-11.5-2.4-18.5-4.5-21.2v-.6h76.7c28.6,0,50,9.7,64,29,14,19.3,21,46.7,21,82.1s-3.2,43.9-9.7,62.3c-6.4,18.4-16.3,33-29.6,43.7-13.3,10.7-29.7,16.1-49.1,16.1h-73.3ZM192.1,289.6c22.1,0,38.1-10.1,48-30.4,9.9-20.3,14.9-49.3,14.9-87.2,0-70.8-21-106.2-62.9-106.2h-30.4v223.7h30.4Z"></path><path class="cls-1" d="M346.7,289.6c-12.4-6.1-22.5-15.9-30.2-29.3-7.8-13.4-11.7-30.4-11.7-51.1s3.7-32.5,11.2-45.3c7.5-12.8,17.4-22.5,29.9-29.2,12.5-6.6,26.2-10,41.1-10s35,3.8,44.3,11.4c9.3,7.6,14,17.5,14,29.8s-2.2,14.9-6.6,21.3c-4.4,6.4-9.8,12-16.3,16.7-6.4,4.7-14.8,10.2-25,16.6-12.9,7.8-22.4,14.4-28.5,19.9-6.1,5.5-9.2,11.9-9.2,19h-4.9c0-7,2-12.8,6-17.5,4-4.7,10.4-10.4,19.2-17.2,7.4-5.5,13.3-10.4,17.8-14.7,4.5-4.3,8.3-9.7,11.5-16.3,3.2-6.5,4.8-14.1,4.8-22.7s-1.2-11.8-3.5-18.1c-2.4-6.3-6.1-11.8-11.2-16.4-5.1-4.6-11.5-6.9-19-6.9-14.1,0-25,7-32.5,20.9-7.6,13.9-11.4,33.5-11.4,58.6s5.3,51.3,16,64.8c10.6,13.5,23.9,20.3,39.9,20.3s17.1-1.8,25.5-5.4c8.4-3.6,15.4-8.2,21.2-14l3.1,6.1c-6.8,5.5-15,9.9-24.7,13-9.7,3.2-19.9,4.8-30.5,4.8s-27.7-3.1-40.1-9.2Z"></path><path class="cls-1" d="M466.8,294.2v-.6c2-2.7,3.5-9.7,4.5-21.2.9-11.5,1.4-24.7,1.4-39.6v-110.5c0-14.9-.5-28.1-1.4-39.6-.9-11.5-2.4-18.5-4.5-21.2v-.6h96.4c12.1,0,21.8,1.4,29.3,4.1,7.5,2.8,12.8,6.1,16,10,3.2,3.9,4.8,7.8,4.8,11.7,0,7-1.9,12.3-5.7,16.1s-8.3,6.3-13.7,7.7c-5.3,1.3-12.1,2.4-20.3,3.2-9.6,1-16.7,2.4-21.2,4-4.5,1.6-6.8,5-6.8,10.1s2,8.1,6.1,10.9c4.1,2.8,10.6,6.1,19.6,10,11.9,5.1,21.8,10.2,29.8,15.3,8,5.1,14.9,12.7,20.9,22.7,5.9,10,8.9,22.9,8.9,38.7s-2.9,22.5-8.7,33c-5.8,10.5-14.6,19.1-26.2,25.8-11.7,6.7-25.8,10-42.4,10h-86.9ZM547.2,289.6c11.7,0,21.5-3.2,29.5-9.5,8-6.3,13.8-14.4,17.5-24.2,3.7-9.8,5.5-19.9,5.5-30.4s-1.8-22.8-5.5-31.6c-3.7-8.8-8-15.9-12.9-21.2-4.9-5.3-11.2-11-18.7-17.2-7-5.5-12-10.2-15.2-14.1-3.2-3.9-4.8-8.4-4.8-13.5s1.5-10.4,4.6-12.9c3.1-2.5,7.7-4.6,13.8-6.4,4.7-1.4,8.5-2.9,11.4-4.3,2.9-1.4,5.3-3.8,7.2-7.1,1.9-3.3,2.9-7.8,2.9-13.5s-2.3-11.1-6.9-13.8c-4.6-2.7-11.3-4-20.1-4h-51.9l.3,223.7h43.3Z"></path><path class="cls-1" d="M688.4,192.3c3.9-20.9,11.3-37.5,22.2-49.9,10.9-12.4,25.3-18.6,43.1-18.6v24.6c-14.5,0-26.4,2.2-35.6,6.6-9.2,4.4-16.3,11.6-21.2,21.6-4.9,10-7.8,23.5-8.6,40.5v15.7c0,14.9.5,28.1,1.4,39.6.9,11.5,2.4,18.5,4.5,21.2v.6h-43v-.6c2-2.7,3.5-9.7,4.5-21.2.9-11.5,1.4-24.7,1.4-39.6v-43.9c0-14.9-.5-28.1-1.4-39.6-.9-11.5-2.4-18.5-4.5-21.2v-.6h37.1v64.8Z"></path><path class="cls-1" d="M769.3,287.4c-9.3-7.8-14.1-18.6-14.3-32.5,0-10.8,2.8-22.1,8.4-33.9,5.6-11.8,13.6-25.9,23.8-42.5,6.5-10.4,11.2-18.3,14-23.6,2.8-5.3,4.1-9.7,4.1-13.2,5.1,0,9.3,1.6,12.4,4.8,3.2,3.2,4.8,7.9,4.8,14.3s-1.1,6.5-3.2,10.9c-2.1,4.4-4.6,9.1-7.4,14-2.8,4.9-4.6,8.2-5.4,9.8-9.4,16.2-16.8,30.3-22.3,42.5-5.4,12.2-8.1,23.8-8.1,34.8s2.7,12.1,8.1,16.1c5.4,4,12.1,6,20.1,6s17.2-1.9,25.9-5.8c8.7-3.9,15.9-9.5,21.6-16.7,5.7-7.3,8.6-15.6,8.6-25v-53.4c0-43.6-10.2-65.4-30.7-65.4s-25.2,6.4-42.4,19.3l-5.5-15.3c17.2-5.3,32.3-8,45.4-8,22.7,0,39.1,7.3,49.3,21.8,10.1,14.5,15.2,33.7,15.2,57.4v29.2c0,14.9.5,28.1,1.4,39.6.9,11.5,2.4,18.5,4.5,21.2v.6h-36.5v-26.7h-.9c-6.1,10.2-14.4,18.1-24.7,23.5-10.3,5.4-21,8.1-32.1,8.1s-24.9-3.9-34.2-11.7Z"></path><path class="cls-1" d="M921.9,293.6c2-2.7,3.5-9.7,4.5-21.2.9-11.5,1.4-24.7,1.4-39.6v-43.9c0-14.9-.5-28.1-1.4-39.6-.9-11.5-2.4-18.5-4.5-21.2v-.6h37.1v48.8h.6c4.5-16.6,12.6-29.4,24.2-38.5,11.7-9.1,24.1-13.7,37.4-13.7s16.6,2,23.9,6.1c7.4,4.1,13.2,10.3,17.6,18.6,4.4,8.3,6.6,18.3,6.6,29.9v54c0,14.9.5,28.1,1.4,39.6.9,11.5,2.4,18.5,4.5,21.2v.6h-43v-.6c2-2.7,3.5-9.8,4.4-21.3.9-11.6,1.3-24.7,1.1-39.4v-54c0-15.8-2.6-26.5-7.8-32.2-5.2-5.7-12.3-8.6-21.3-8.6s-15.8,2.6-23.3,7.7c-7.6,5.1-13.9,12.9-18.9,23.5-5,10.5-7.5,23.5-7.5,38.8v24.9c0,14.9.5,28.1,1.4,39.6.9,11.5,2.4,18.5,4.4,21.2v.6h-43v-.6Z"></path></svg> 