<svg xmlns="http://www.w3.org/2000/svg" viewBox="0 0 64 64" width="64" height="64">
  <!-- Fundo rosa da marca com cantos arredondados -->
  <rect width="64" height="64" rx="14" fill="#FF1F6D"/>
  <!-- Símbolo das ondas em cream, centralizado com respiro -->
  <!-- Path original: ~56 × 50. Scale 0.75 = 42 × 37.5. Centro em 64x64: x=11, y=13 -->
  <g transform="translate(11, 13) scale(0.75)">
    <path fill="#FFF9F3" d="M24.1312 21.3366C31.0739 7.66897 40.9416 -1.75991 46.1712 0.276579C50.9236 2.12724 50.2104 12.8091 44.8306 25H55.763C55.2286 26.2088 54.6484 27.4324 54.0231 28.6634C47.0804 42.331 37.2127 51.7599 31.983 49.7234C27.4413 47.9548 27.8915 38.1204 32.6361 26.6112C32.3155 27.2921 31.9807 27.9766 31.6318 28.6634C24.6892 42.331 14.8215 51.7599 9.5918 49.7234C4.83943 47.8728 5.55268 37.1909 10.9324 25H0C0.534451 23.7913 1.11459 22.5676 1.73994 21.3366C8.68264 7.66897 18.5503 -1.75991 23.78 0.276579C28.3217 2.04523 27.8714 11.8795 23.1268 23.3886C23.4474 22.7078 23.7823 22.0234 24.1312 21.3366Z"/>
  </g>
</svg>
