<?xml version="1.0" encoding="UTF-8" standalone="no"?>
<svg
   viewBox="0 0 947.69 373.37675"
   width="345.27951"
   height="136.03909"
   version="1.1"
   id="svg6"
   sodipodi:docname="Mercado Livre wordmark (Portuguese version).svg"
   inkscape:version="1.4.2 (f4327f4, 2025-05-13)"
   xmlns:inkscape="http://www.inkscape.org/namespaces/inkscape"
   xmlns:sodipodi="http://sodipodi.sourceforge.net/DTD/sodipodi-0.dtd"
   xmlns="http://www.w3.org/2000/svg"
   xmlns:svg="http://www.w3.org/2000/svg">
  <defs
     id="defs6" />
  <sodipodi:namedview
     id="namedview6"
     pagecolor="#ffffff"
     bordercolor="#000000"
     borderopacity="0.25"
     inkscape:showpageshadow="2"
     inkscape:pageopacity="0.0"
     inkscape:pagecheckerboard="0"
     inkscape:deskcolor="#d1d1d1"
     inkscape:zoom="0.85456672"
     inkscape:cx="161.48534"
     inkscape:cy="27.499316"
     inkscape:window-width="1366"
     inkscape:window-height="697"
     inkscape:window-x="-8"
     inkscape:window-y="-8"
     inkscape:window-maximized="1"
     inkscape:current-layer="g6" />
  <g
     fill="#2d3277"
     id="g6"
     transform="translate(0,-421.31026)">
    <path
       d="m 904.5,559.37 c -5.26667,6.99333 -12.80667,10.48333 -22.62,10.47 -9.81333,-0.0133 -17.38,-3.50333 -22.7,-10.47 -5.3,-6.98 -7.94667,-16.91 -7.94,-29.79 0.007,-12.88 2.65333,-22.78667 7.94,-29.72 5.33333,-6.94 12.9,-10.41 22.7,-10.41 9.8,0 17.34,3.47 22.62,10.41 5.26,6.96 7.89333,16.86667 7.9,29.72 0.007,12.85333 -2.62667,22.78333 -7.9,29.79 m 26.87,-77.95 C 920.54333,467.84 904.08667,461.05 882,461.05 c -22.08667,0 -38.55333,6.79 -49.4,20.37 -10.84667,13.58 -16.27333,29.63333 -16.28,48.16 0,18.84667 5.42667,34.97333 16.28,48.38 10.85333,13.40667 27.32,20.08667 49.4,20.04 22.10667,0 38.57667,-6.68667 49.41,-20.06 10.83333,-13.37333 16.26,-29.5 16.28,-48.38 0,-18.51333 -5.42667,-34.56667 -16.28,-48.16 m -294.28,62.1 c -0.23,11.29 -3.47,19 -9.65,23.3 -5.95729,4.18081 -13.06207,6.41634 -20.34,6.4 -4.27403,0.11944 -8.45761,-1.24447 -11.84,-3.86 -3.25,-2.56 -4.86,-6.73 -4.86,-12.47 0,-6.47 2.64,-11.23 8,-14.31 3.13,-1.8 8.3,-3.36 15.48,-4.6 l 7.67,-1.41 c 3.0579,-0.54192 6.06752,-1.32776 9,-2.35 2.2854,-0.83708 4.47456,-1.91657 6.53,-3.22 z m 17.08,-73.44 c -11,-5.56667 -23.57667,-8.36 -37.73,-8.38 -21.8,0 -37.17,5.66667 -46.11,17 -5.61333,7.26 -8.78333,16.52667 -9.51,27.8 h 32.54 c 0.8,-5 2.38,-8.92 4.8,-11.83 3.33333,-3.94 9.04,-5.91 17.12,-5.91 7.21,0 12.66,1 16.37,3 3.71,2 5.57,5.66 5.57,10.94 0,4.34 -2.42,7.51 -7.26,9.57 -2.7,1.19 -7.18,2.17 -13.47,3 L 605,516.67 c -13.09,1.64 -23,4.42 -29.77,8.28 -12.32,7.1 -18.48333,18.57 -18.49,34.41 0,12.21333 3.83333,21.64667 11.5,28.3 7.63,6.67 17.34,9.46 29.07,10 73.57,3.28 72.74,-38.77 73.42,-47.52 v -48.37 c 0,-15.52667 -5.50333,-26.09667 -16.51,-31.71 m -167.74,20.45 c 8.4,0 14.59,2.59333 18.57,7.78 2.73568,3.85206 4.48666,8.31533 5.1,13 h 36.3 c -2,-18.28667 -8.40667,-31.06 -19.22,-38.32 -10.81333,-7.26 -24.72333,-10.88333 -41.73,-10.87 -20,0 -35.66667,6.12667 -47,18.38 -11.33333,12.25333 -17.02,29.40667 -17.06,51.46 0,19.52667 5.14667,35.42333 15.44,47.69 10.29333,12.26667 26.33333,18.39 48.12,18.37 21.81333,0 38.28,-7.35333 49.4,-22.06 6.97333,-9.10667 10.87,-18.77333 11.69,-29 H 509.9 c -0.74,6.76 -2.85,12.26 -6.37,16.5 -3.52,4.24 -9.35,6.37 -17.66,6.37 -11.70667,0 -19.68333,-5.33333 -23.93,-16 -2.31,-5.71 -3.5,-13.28 -3.5,-22.68 0,-9.87 1.19,-17.78 3.5,-23.77 4.4,-11.22 12.58,-16.83667 24.54,-16.85 M 411.7,462.1 c -74.54,0 -70.13,66 -70.13,66 v 67 h 33.82 v -62.85 c 0,-10.3 1.29333,-17.92667 3.88,-22.88 4.65,-8.8 13.71,-13.21 27.25,-13.21 1,0 2.35,0.06 4,0.13 1.65,0.07 3.52,0.23 5.67,0.47 v -34.41 c -1.5,-0.1 -2.48,-0.14 -2.88,-0.18 -0.4,-0.04 -1,-0.07 -1.61,-0.07 M 242,497.13 c 4.75333,-4.88667 11.43667,-7.33333 20.05,-7.34 7.93333,0 14.58,2.30667 19.94,6.92 5.36,4.61333 8.34,11.38 8.94,20.3 H 233 c 1.21,-8.37 4.21,-15 9,-19.88 m 45.46,63 c -1.29729,1.91697 -2.85564,3.6436 -4.63,5.13 -4.79,3.92 -11.27,5.12 -18.91,5.12 -7.23,0 -12.88,-1.1 -18,-4.32 -8.43,-5.19 -13.18,-14 -13.7,-26.86 h 93.61 c 0.11,-11.09 -0.23,-19.59 -1.13,-25.49 -1.3504,-9.52109 -4.84863,-18.61033 -10.23,-26.58 -5.45785,-8.30218 -13.15465,-14.88954 -22.2,-19 -9.53206,-4.11493 -19.8289,-6.15998 -30.21,-6 -18.85333,0 -34.18667,5.93667 -46,17.81 -11.81333,11.87333 -17.72,28.94 -17.72,51.2 0,23.76667 6.54,40.91667 19.62,51.45 12.75142,10.43445 28.77488,16.03646 45.25,15.82 20.70667,0 36.82667,-6.25 48.36,-18.75 6.2,-6.59 10.08,-13.08 11.72,-19.51 z m -102.67,34.99 h -30.9 v -77.81 c 0,-7.1 -2.35,-24 -22.72,-24 -13.6,0 -23.42,9.78 -23.42,24 v 77.81 H 76.8 v -77.81 c 0,-7.1 -2.09,-24 -22.47,-24 -13.83,0 -23.42,9.78 -23.42,24 v 77.81 H 0 v -77.06 c 0,-32.13 21.31,-56.41 54.33,-56.41 16.4,0 29.75,6.89 38.43,17.91 9.44866,-11.45514 23.56137,-18.03569 38.41,-17.91 33.72,0 53.62,23.3 53.62,56.41 z m 580.9,-35.47 c -4.94,7.08 -12.2,10.61 -21.68,10.61 -9.48,0 -16.61,-3.56 -21.28,-10.67 -4.67,-7.11 -7,-17.5 -7,-29.35 0,-11 2.29333,-20.21333 6.88,-27.64 4.58667,-7.42667 11.8,-11.14333 21.64,-11.15 6.22129,-0.0784 12.26043,2.09923 17,6.13 7.93,6.77 11.9,18.89 11.9,34.6 0,11.23333 -2.47667,20.39 -7.43,27.47 M 806.3,421.46 c 0,0 -34.08,-3.64 -34.08,23.73 v 36.25 c -3.61699,-5.91252 -8.68367,-10.80365 -14.72,-14.21 -6.35475,-3.48978 -13.5112,-5.25821 -20.76,-5.13 -16.88667,0 -30.38333,6.28333 -40.49,18.85 -10.09,12.6 -15.12,30.72 -15.12,52.63 0,19.02667 5.12333,34.61333 15.37,46.76 10.27,12.13 30.38,17.46 48.23,17.46 62.28,0 61.56,-53.41 61.56,-53.41 z M 607.12,694.35 c 4.71333,-4.84667 11.34,-7.27 19.88,-7.27 7.84,0 14.42,2.28333 19.74,6.85 5.32,4.56667 8.28,11.25667 8.88,20.07 h -57.38 c 1.21333,-8.28 4.17333,-14.84333 8.88,-19.69 m 45.06,62.42 c -1.28188,1.90215 -2.83113,3.6097 -4.6,5.07 -4.74,3.9 -11.41,5.35 -19,5.35 -7.16,0 -12.77,-1.09 -17.84,-4.3 -8.38,-5.13333 -12.82,-14.09 -13.32,-26.87 h 92.78 c 0.13,-11 -0.23,-19.41 -1.13,-25.26 -1.33019,-9.43597 -4.79469,-18.44434 -10.13,-26.34 -5.39959,-8.24054 -13.02906,-14.77761 -22,-18.85 -9.43609,-4.09565 -19.63436,-6.14076 -29.92,-6 -18.7,0 -33.85,5.89 -45.58,17.65 -11.73,11.76 -17.55,28.82 -17.55,50.82 0,23.54667 6.48333,40.54667 19.45,51 12.63961,10.34751 28.52654,15.9005 44.86,15.68 20.50667,0 36.47,-6.19333 47.89,-18.58 6.15,-6.52 10,-13 11.65,-19.34 z m -94.75,-96.99 h -1.59 c -74.56,0 -70.14,66 -70.14,66 v 66 h 33.84 v -61.91 c 0,-10.3 1.29333,-17.92667 3.88,-22.88 4.62,-8.8 13.69667,-13.20667 27.23,-13.22 1,0 2.35,0 4,0.15 1.65,0.15 3.54,0.21 5.67,0.45 v -34.42 c -1.5,-0.08 -2.46,-0.12 -2.89,-0.17 M 257.4,642.57 v 148.86 h 31.74 V 618.29 c 0,0 -31.74,-1.29 -31.74,24.28 m 91.65,9.13 h -34 v -33.65 h 34 z m -33.98,139.97 h 34.05 V 663.17 H 315.07 Z M 440.14,791.4 H 405.91 L 361,663.15 h 35.72 l 25.54,90.17 22.64,-78.61 c 2.6,-7.72 7.74667,-11.57333 15.44,-11.56 h 25.1 z"
       id="path6"
       style="display:inline"
       sodipodi:nodetypes="cscscscsccsscscsccccccsccccccccccccsssccccccccscccccscscsccccsscsccccccscssccscccscccccscccccccsscccccccsssccsssccssccsccssssccsccsccccscscccsscccccscccccccssccccccscccsccsccccccccccccccccccccccccccc" />
  </g>
</svg>
